<svg width="243" height="50" viewBox="0 0 243 50" fill="none" xmlns="http://www.w3.org/2000/svg">
<path d="M2.7689 49.5871C2.28225 49.1089 2.21449 48.4903 2.6003 48.0481C2.73864 47.8895 7.05566 44.8148 12.1937 41.2155C18.6894 36.665 21.857 34.5303 22.5907 34.2089C25.707 32.8436 29.293 32.8436 32.4093 34.2089C33.143 34.5303 36.3106 36.665 42.8063 41.2155C47.9443 44.8148 52.2614 47.8895 52.3997 48.0481C52.7855 48.4903 52.7178 49.1089 52.2311 49.5871L51.811 50H27.5H3.18901L2.7689 49.5871ZM46.8783 42.5269C43.4872 40.1462 40.6709 38.0629 40.1423 37.5441C38.5476 35.9787 37.3167 33.8069 36.7416 31.5436C36.3758 30.1035 36.4149 27.1229 36.8193 25.6356C37.1018 24.5966 38.1315 22.3247 38.6026 21.701C38.7877 21.456 39.155 21.6873 44.181 25.2151C50.6337 29.7442 51.1477 30.1434 52.2381 31.4732C54.0492 33.6817 55.0021 36.3944 55 39.3362C54.9984 41.7132 54.3545 44.0252 53.1799 45.8727L52.7059 46.6182L46.8783 42.5269ZM10.7367 24.7404C4.27051 20.1782 3.83427 19.8383 2.7605 18.5268C0.94966 16.3151 -0.00209004 13.6041 3.4462e-06 10.6638C0.00168736 8.28679 0.645454 5.9748 1.82005 4.12734L2.29406 3.38179L8.12171 7.47308C11.5128 9.8538 14.3291 11.9371 14.8577 12.4559C16.4524 14.0213 17.6833 16.1931 18.2583 18.4564C18.6225 19.8896 18.5849 22.8742 18.1838 24.3644C17.8782 25.5001 16.4861 28.4088 16.2179 28.4723C16.1388 28.4909 13.6723 26.8116 10.7367 24.7404ZM24.7513 16.5225C22.5534 15.9912 21.952 15.6206 12.1937 8.78455C7.05566 5.18518 2.73864 2.1105 2.6003 1.95193C2.21449 1.50967 2.28225 0.891125 2.7689 0.412865L3.18901 0H27.5H51.811L52.2311 0.412865C52.7178 0.891125 52.7855 1.50967 52.3997 1.95193C52.2614 2.1105 47.9443 5.18518 42.8063 8.78455C32.9802 15.668 32.4451 15.9963 30.1816 16.5297C28.6383 16.8933 26.2721 16.8902 24.7513 16.5225Z" fill="white"/>
<path d="M84.216 30.984C83.048 30.984 81.992 30.784 81.048 30.384C80.12 29.984 79.384 29.408 78.84 28.656C78.296 27.904 78.016 27.016 78 25.992H81.6C81.648 26.68 81.888 27.224 82.32 27.624C82.768 28.024 83.376 28.224 84.144 28.224C84.928 28.224 85.544 28.04 85.992 27.672C86.44 27.288 86.664 26.792 86.664 26.184C86.664 25.688 86.512 25.28 86.208 24.96C85.904 24.64 85.52 24.392 85.056 24.216C84.608 24.024 83.984 23.816 83.184 23.592C82.096 23.272 81.208 22.96 80.52 22.656C79.848 22.336 79.264 21.864 78.768 21.24C78.288 20.6 78.048 19.752 78.048 18.696C78.048 17.704 78.296 16.84 78.792 16.104C79.288 15.368 79.984 14.808 80.88 14.424C81.776 14.024 82.8 13.824 83.952 13.824C85.68 13.824 87.08 14.248 88.152 15.096C89.24 15.928 89.84 17.096 89.952 18.6H86.256C86.224 18.024 85.976 17.552 85.512 17.184C85.064 16.8 84.464 16.608 83.712 16.608C83.056 16.608 82.528 16.776 82.128 17.112C81.744 17.448 81.552 17.936 81.552 18.576C81.552 19.024 81.696 19.4 81.984 19.704C82.288 19.992 82.656 20.232 83.088 20.424C83.536 20.6 84.16 20.808 84.96 21.048C86.048 21.368 86.936 21.688 87.624 22.008C88.312 22.328 88.904 22.808 89.4 23.448C89.896 24.088 90.144 24.928 90.144 25.968C90.144 26.864 89.912 27.696 89.448 28.464C88.984 29.232 88.304 29.848 87.408 30.312C86.512 30.76 85.448 30.984 84.216 30.984Z" fill="white"/>
<path d="M92.193 24.144C92.193 22.816 92.465 21.64 93.009 20.616C93.569 19.576 94.321 18.768 95.265 18.192C96.209 17.616 97.249 17.328 98.385 17.328C99.329 17.328 100.161 17.512 100.881 17.88C101.617 18.232 102.209 18.688 102.657 19.248V17.52H106.041V37.152H102.657V28.992C102.209 29.568 101.609 30.048 100.857 30.432C100.105 30.816 99.257 31.008 98.313 31.008C97.193 31.008 96.161 30.72 95.217 30.144C94.289 29.552 93.553 28.736 93.009 27.696C92.465 26.656 92.193 25.472 92.193 24.144ZM102.657 24.168C102.657 23.352 102.489 22.648 102.153 22.056C101.817 21.464 101.377 21.016 100.833 20.712C100.305 20.408 99.737 20.256 99.129 20.256C98.537 20.256 97.969 20.408 97.425 20.712C96.897 21.016 96.465 21.464 96.129 22.056C95.793 22.632 95.625 23.328 95.625 24.144C95.625 24.96 95.793 25.672 96.129 26.28C96.465 26.872 96.897 27.32 97.425 27.624C97.969 27.928 98.537 28.08 99.129 28.08C99.737 28.08 100.305 27.928 100.833 27.624C101.377 27.32 101.817 26.872 102.153 26.28C102.489 25.688 102.657 24.984 102.657 24.168Z" fill="white"/>
<path d="M121.875 17.52V30.816H118.491V29.136C118.059 29.712 117.491 30.168 116.787 30.504C116.099 30.824 115.347 30.984 114.531 30.984C113.491 30.984 112.571 30.768 111.771 30.336C110.971 29.888 110.339 29.24 109.875 28.392C109.427 27.528 109.203 26.504 109.203 25.32V17.52H112.563V24.84C112.563 25.896 112.827 26.712 113.355 27.288C113.883 27.848 114.603 28.128 115.515 28.128C116.443 28.128 117.171 27.848 117.699 27.288C118.227 26.712 118.491 25.896 118.491 24.84V17.52H121.875Z" fill="white"/>
<path d="M128.55 19.464C128.982 18.824 129.574 18.304 130.326 17.904C131.094 17.504 131.966 17.304 132.942 17.304C134.078 17.304 135.102 17.584 136.014 18.144C136.942 18.704 137.67 19.504 138.198 20.544C138.742 21.568 139.014 22.76 139.014 24.12C139.014 25.48 138.742 26.688 138.198 27.744C137.67 28.784 136.942 29.592 136.014 30.168C135.102 30.744 134.078 31.032 132.942 31.032C131.95 31.032 131.078 30.84 130.326 30.456C129.59 30.056 128.998 29.544 128.55 28.92V30.816H125.19V13.056H128.55V19.464ZM135.582 24.12C135.582 23.32 135.414 22.632 135.078 22.056C134.758 21.464 134.326 21.016 133.782 20.712C133.254 20.408 132.678 20.256 132.054 20.256C131.446 20.256 130.87 20.416 130.326 20.736C129.798 21.04 129.366 21.488 129.03 22.08C128.71 22.672 128.55 23.368 128.55 24.168C128.55 24.968 128.71 25.664 129.03 26.256C129.366 26.848 129.798 27.304 130.326 27.624C130.87 27.928 131.446 28.08 132.054 28.08C132.678 28.08 133.254 27.92 133.782 27.6C134.326 27.28 134.758 26.824 135.078 26.232C135.414 25.64 135.582 24.936 135.582 24.12Z" fill="white"/>
<path d="M143.159 15.936C142.567 15.936 142.071 15.752 141.671 15.384C141.287 15 141.095 14.528 141.095 13.968C141.095 13.408 141.287 12.944 141.671 12.576C142.071 12.192 142.567 12 143.159 12C143.751 12 144.239 12.192 144.623 12.576C145.023 12.944 145.223 13.408 145.223 13.968C145.223 14.528 145.023 15 144.623 15.384C144.239 15.752 143.751 15.936 143.159 15.936ZM144.815 17.52V30.816H141.455V17.52H144.815Z" fill="white"/>
<path d="M155.479 30.816L152.743 26.688L150.319 30.816H146.719L151.063 24.144L146.671 17.52H150.463L153.175 21.624L155.623 17.52H159.223L154.855 24.144L159.271 30.816H155.479Z" fill="white"/>
<path d="M172.671 14.064C174.431 14.064 175.975 14.408 177.303 15.096C178.647 15.784 179.679 16.768 180.399 18.048C181.135 19.312 181.503 20.784 181.503 22.464C181.503 24.144 181.135 25.616 180.399 26.88C179.679 28.128 178.647 29.096 177.303 29.784C175.975 30.472 174.431 30.816 172.671 30.816H166.815V14.064H172.671ZM172.551 27.96C174.311 27.96 175.671 27.48 176.631 26.52C177.591 25.56 178.071 24.208 178.071 22.464C178.071 20.72 177.591 19.36 176.631 18.384C175.671 17.392 174.311 16.896 172.551 16.896H170.175V27.96H172.551Z" fill="white"/>
<path d="M185.722 15.936C185.13 15.936 184.634 15.752 184.234 15.384C183.85 15 183.658 14.528 183.658 13.968C183.658 13.408 183.85 12.944 184.234 12.576C184.634 12.192 185.13 12 185.722 12C186.314 12 186.802 12.192 187.186 12.576C187.586 12.944 187.786 13.408 187.786 13.968C187.786 14.528 187.586 15 187.186 15.384C186.802 15.752 186.314 15.936 185.722 15.936ZM187.378 17.52V30.816H184.018V17.52H187.378Z" fill="white"/>
<path d="M195.906 17.304C196.898 17.304 197.77 17.504 198.522 17.904C199.274 18.288 199.866 18.792 200.298 19.416V17.52H203.682V30.912C203.682 32.144 203.434 33.24 202.938 34.2C202.442 35.176 201.698 35.944 200.706 36.504C199.714 37.08 198.514 37.368 197.106 37.368C195.218 37.368 193.666 36.928 192.45 36.048C191.25 35.168 190.57 33.968 190.41 32.448H193.746C193.922 33.056 194.298 33.536 194.874 33.888C195.466 34.256 196.178 34.44 197.01 34.44C197.986 34.44 198.778 34.144 199.386 33.552C199.994 32.976 200.298 32.096 200.298 30.912V28.848C199.866 29.472 199.266 29.992 198.498 30.408C197.746 30.824 196.882 31.032 195.906 31.032C194.786 31.032 193.762 30.744 192.834 30.168C191.906 29.592 191.17 28.784 190.626 27.744C190.098 26.688 189.834 25.48 189.834 24.12C189.834 22.776 190.098 21.584 190.626 20.544C191.17 19.504 191.898 18.704 192.81 18.144C193.738 17.584 194.77 17.304 195.906 17.304ZM200.298 24.168C200.298 23.352 200.138 22.656 199.818 22.08C199.498 21.488 199.066 21.04 198.522 20.736C197.978 20.416 197.394 20.256 196.77 20.256C196.146 20.256 195.57 20.408 195.042 20.712C194.514 21.016 194.082 21.464 193.746 22.056C193.426 22.632 193.266 23.32 193.266 24.12C193.266 24.92 193.426 25.624 193.746 26.232C194.082 26.824 194.514 27.28 195.042 27.6C195.586 27.92 196.162 28.08 196.77 28.08C197.394 28.08 197.978 27.928 198.522 27.624C199.066 27.304 199.498 26.856 199.818 26.28C200.138 25.688 200.298 24.984 200.298 24.168Z" fill="white"/>
<path d="M208.667 15.936C208.075 15.936 207.579 15.752 207.179 15.384C206.795 15 206.603 14.528 206.603 13.968C206.603 13.408 206.795 12.944 207.179 12.576C207.579 12.192 208.075 12 208.667 12C209.259 12 209.747 12.192 210.131 12.576C210.531 12.944 210.731 13.408 210.731 13.968C210.731 14.528 210.531 15 210.131 15.384C209.747 15.752 209.259 15.936 208.667 15.936ZM210.323 17.52V30.816H206.963V17.52H210.323Z" fill="white"/>
<path d="M217.555 20.28V26.712C217.555 27.16 217.659 27.488 217.867 27.696C218.091 27.888 218.459 27.984 218.971 27.984H220.531V30.816H218.419C215.587 30.816 214.171 29.44 214.171 26.688V20.28H212.587V17.52H214.171V14.232H217.555V17.52H220.531V20.28H217.555Z" fill="white"/>
<path d="M222.084 24.12C222.084 22.776 222.348 21.584 222.876 20.544C223.42 19.504 224.148 18.704 225.06 18.144C225.988 17.584 227.02 17.304 228.156 17.304C229.148 17.304 230.012 17.504 230.748 17.904C231.5 18.304 232.1 18.808 232.548 19.416V17.52H235.932V30.816H232.548V28.872C232.116 29.496 231.516 30.016 230.748 30.432C229.996 30.832 229.124 31.032 228.132 31.032C227.012 31.032 225.988 30.744 225.06 30.168C224.148 29.592 223.42 28.784 222.876 27.744C222.348 26.688 222.084 25.48 222.084 24.12ZM232.548 24.168C232.548 23.352 232.388 22.656 232.068 22.08C231.748 21.488 231.316 21.04 230.772 20.736C230.228 20.416 229.644 20.256 229.02 20.256C228.396 20.256 227.82 20.408 227.292 20.712C226.764 21.016 226.332 21.464 225.996 22.056C225.676 22.632 225.516 23.32 225.516 24.12C225.516 24.92 225.676 25.624 225.996 26.232C226.332 26.824 226.764 27.28 227.292 27.6C227.836 27.92 228.412 28.08 229.02 28.08C229.644 28.08 230.228 27.928 230.772 27.624C231.316 27.304 231.748 26.856 232.068 26.28C232.388 25.688 232.548 24.984 232.548 24.168Z" fill="white"/>
<path d="M242.573 13.056V30.816H239.213V13.056H242.573Z" fill="white"/>
</svg>
